<?xml version="1.0" standalone="no"?>
<!DOCTYPE svg PUBLIC "-//W3C//DTD SVG 20010904//EN"
 "http://www.w3.org/TR/2001/REC-SVG-20010904/DTD/svg10.dtd">
<svg version="1.0" xmlns="http://www.w3.org/2000/svg"
 width="170.000000pt" height="170.000000pt" viewBox="0 0 170.000000 170.000000"
 preserveAspectRatio="xMidYMid meet">
<metadata>
Created by potrace 1.14, written by Peter Selinger 2001-2017
</metadata>
<g transform="translate(0.000000,170.000000) scale(0.100000,-0.100000)"
fill="#000000" stroke="none">
<path d="M685 1683 c-335 -71 -596 -338 -660 -673 -78 -413 164 -825 563 -959
94 -32 126 -36 282 -35 135 0 152 3 241 32 277 92 486 313 561 595 29 109 31
298 4 407 -37 150 -114 288 -223 398 -109 110 -232 182 -379 223 -103 27 -290
34 -389 12z m-25 -651 c25 -19 26 -19 52 1 36 27 124 29 162 4 48 -32 57 -71
54 -234 l-3 -147 -47 1 c-27 1 -61 2 -78 2 l-30 1 0 123 c0 128 -6 149 -41
140 -21 -6 -20 0 -22 -146 -1 -69 -6 -110 -14 -115 -12 -8 -132 -7 -140 1 -2
3 -5 60 -6 127 -2 117 -3 123 -24 131 -34 12 -41 -11 -39 -140 1 -127 3 -124
-73 -123 -96 1 -86 -22 -87 192 0 105 2 191 5 192 3 0 39 2 79 3 58 2 72 -1
72 -12 0 -13 3 -13 23 0 45 29 116 29 157 -1z m665 2 c37 -24 59 -95 58 -188
-1 -128 -35 -184 -117 -193 -47 -6 -105 11 -108 31 -1 6 -4 -29 -7 -79 l-6
-90 -77 -1 -78 -1 0 269 0 268 80 -1 c60 -1 80 -5 80 -15 0 -10 7 -9 31 5 37
23 106 20 144 -5z"/>
<path d="M1162 918 c-18 -18 -15 -113 4 -132 20 -21 53 -5 56 27 7 95 -21 144
-60 105z"/>
</g>
</svg>
